HIERARCHY
ROOT hip
{
  OFFSET 9.00362 76.1873 -275.745
  CHANNELS 6 Xposition Yposition Zposition Zrotation Xrotation Yrotation
  JOINT abdomen
  {
    OFFSET 0 20.6881 -0.73152
    CHANNELS 3 Zrotation Xrotation Yrotation
    JOINT chest
    {
      OFFSET 0 11.7043 -0.48768
      CHANNELS 3 Zrotation Xrotation Yrotation
      JOINT neck
      {
        OFFSET 0 22.1894 -2.19456
        CHANNELS 3 Zrotation Xrotation Yrotation
        JOINT head
        {
          OFFSET -0.24384 7.07133 1.2192
          CHANNELS 3 Zrotation Xrotation Yrotation
          JOINT leftEye
          {
            OFFSET 4.14528 8.04674 8.04672
            CHANNELS 3 Zrotation Xrotation Yrotation
            End Site
            {
              OFFSET 1 0 0
            }
          }
          JOINT rightEye
          {
            OFFSET -3.6576 8.04674 8.04672
            CHANNELS 3 Zrotation Xrotation Yrotation
            End Site
            {
              OFFSET 1 0 0
            }
          }
        }
      }
      JOINT rCollar
      {
        OFFSET -2.68224 19.2634 -4.8768
        CHANNELS 3 Zrotation Xrotation Yrotation
        JOINT rShldr
        {
          OFFSET -8.77824 -1.95073 1.46304
          CHANNELS 3 Zrotation Xrotation Yrotation
          JOINT rForeArm
          {
            OFFSET -28.1742 -1.7115 0.48768
            CHANNELS 3 Zrotation Xrotation Yrotation
            JOINT rHand
            {
              OFFSET -22.5879 0.773209 7.07136
              CHANNELS 3 Zrotation Xrotation Yrotation
              JOINT rThumb1
              {
                OFFSET -1.2192 -0.487915 3.41376
                CHANNELS 3 Zrotation Xrotation Yrotation
                JOINT rThumb2
                {
                  OFFSET -3.37035 -0.52449 3.41376
                  CHANNELS 3 Zrotation Xrotation Yrotation
                  End Site
                  {
                    OFFSET -1.78271 -1.18214 1.43049
                  }
                }
              }
              JOINT rIndex1
              {
                OFFSET -7.75947 0.938293 5.60832
                CHANNELS 3 Zrotation Xrotation Yrotation
                JOINT rIndex2
                {
                  OFFSET -2.54057 -0.884171 1.56538
                  CHANNELS 3 Zrotation Xrotation Yrotation
                  End Site
                  {
                    OFFSET -1.62519 -0.234802 1.16502
                  }
                }
              }
              JOINT rMid1
              {
                OFFSET -8.24714 1.18213 3.41376
                CHANNELS 3 Zrotation Xrotation Yrotation
                JOINT rMid2
                {
                  OFFSET -3.10165 -0.590103 1.0647
                  CHANNELS 3 Zrotation Xrotation Yrotation
                  End Site
                  {
                    OFFSET -2.48547 -0.328903 0.83742
                  }
                }
              }
              JOINT rRing1
              {
                OFFSET -8.82822 0.546677 1.51678
                CHANNELS 3 Zrotation Xrotation Yrotation
                JOINT rRing2
                {
                  OFFSET -2.60934 -0.819778 -0.0198488
                  CHANNELS 3 Zrotation Xrotation Yrotation
                  End Site
                  {
                    OFFSET -2.33842 -0.294052 0.168128
                  }
                }
              }
              JOINT rPinky1
              {
                OFFSET -8.27202 -0.0477905 -0.4584
                CHANNELS 3 Zrotation Xrotation Yrotation
                JOINT rPinky2
                {
                  OFFSET -1.82734 -0.647385 -0.700984
                  CHANNELS 3 Zrotation Xrotation Yrotation
                  End Site
                  {
                    OFFSET -1.69225 -0.51767 -0.607171
                  }
                }
              }
            }
          }
        }
      }
      JOINT lCollar
      {
        OFFSET 2.68224 19.2634 -4.8768
        CHANNELS 3 Zrotation Xrotation Yrotation
        JOINT lShldr
        {
          OFFSET 8.77824 -1.95073 1.46304
          CHANNELS 3 Zrotation Xrotation Yrotation
          JOINT lForeArm
          {
            OFFSET 28.1742 -1.7115 0.48768
            CHANNELS 3 Zrotation Xrotation Yrotation
            JOINT lHand
            {
              OFFSET 22.5879 0.773209 7.07136
              CHANNELS 3 Zrotation Xrotation Yrotation
              JOINT lThumb1
              {
                OFFSET 1.2192 -0.487915 3.41376
                CHANNELS 3 Zrotation Xrotation Yrotation
                JOINT lThumb2
                {
                  OFFSET 3.37035 -0.52449 3.41376
                  CHANNELS 3 Zrotation Xrotation Yrotation
                  End Site
                  {
                    OFFSET 1.78271 -1.18214 1.43049
                  }
                }
              }
              JOINT lIndex1
              {
                OFFSET 7.75947 0.938293 5.60832
                CHANNELS 3 Zrotation Xrotation Yrotation
                JOINT lIndex2
                {
                  OFFSET 2.54057 -0.884171 1.56538
                  CHANNELS 3 Zrotation Xrotation Yrotation
                  End Site
                  {
                    OFFSET 1.62519 -0.234802 1.16502
                  }
                }
              }
              JOINT lMid1
              {
                OFFSET 8.24714 1.18213 3.41376
                CHANNELS 3 Zrotation Xrotation Yrotation
                JOINT lMid2
                {
                  OFFSET 3.10165 -0.590103 1.0647
                  CHANNELS 3 Zrotation Xrotation Yrotation
                  End Site
                  {
                    OFFSET 2.48547 -0.328903 0.83742
                  }
                }
              }
              JOINT lRing1
              {
                OFFSET 8.82822 0.546677 1.51678
                CHANNELS 3 Zrotation Xrotation Yrotation
                JOINT lRing2
                {
                  OFFSET 2.60934 -0.819778 -0.0198488
                  CHANNELS 3 Zrotation Xrotation Yrotation
                  End Site
                  {
                    OFFSET 2.33842 -0.294052 0.168128
                  }
                }
              }
              JOINT lPinky1
              {
                OFFSET 8.27202 -0.0477905 -0.4584
                CHANNELS 3 Zrotation Xrotation Yrotation
                JOINT lPinky2
                {
                  OFFSET 1.82734 -0.647385 -0.700984
                  CHANNELS 3 Zrotation Xrotation Yrotation
                  End Site
                  {
                    OFFSET 1.69225 -0.51767 -0.607171
                  }
                }
              }
            }
          }
        }
      }
    }
  }
  JOINT rButtock
  {
    OFFSET -8.77824 4.35084 1.2192
    CHANNELS 3 Zrotation Xrotation Yrotation
    JOINT rThigh
    {
      OFFSET 0 -1.70687 -2.19456
      CHANNELS 3 Zrotation Xrotation Yrotation
      JOINT rShin
      {
        OFFSET 0 -36.8199 0.73152
        CHANNELS 3 Zrotation Xrotation Yrotation
        JOINT rFoot
        {
          OFFSET 0.73152 -45.1104 -5.12064
          CHANNELS 3 Zrotation Xrotation Yrotation
          End Site
          {
            OFFSET -1.1221 -3.69964 12.103
          }
        }
      }
    }
  }
  JOINT lButtock
  {
    OFFSET 8.77824 4.35084 1.2192
    CHANNELS 3 Zrotation Xrotation Yrotation
    JOINT lThigh
    {
      OFFSET 0 -1.70687 -2.19456
      CHANNELS 3 Zrotation Xrotation Yrotation
      JOINT lShin
      {
        OFFSET 0 -36.8199 0.73152
        CHANNELS 3 Zrotation Xrotation Yrotation
        JOINT lFoot
        {
          OFFSET -0.73152 -45.1104 -5.12064
          CHANNELS 3 Zrotation Xrotation Yrotation
          End Site
          {
            OFFSET 1.1221 -3.69964 12.103
          }
        }
      }
    }
  }
}
MOTION
Frames:	6
Frame Time:	0.00833333
6.46229 66.7395 35.9853 3.64894 -26.9366 170.356 -4.15073 12.2194 -5.4145 4.34381 -8.99061 -1.33428 -4.00011 -8.10269 -3.08752 5.56014 -24.0128 -4.75818 -0 0 0 -0 0 0 -2.55138e-013 6.90624e-013 9.81756e-014 100.636 27.7409 -47.092 -28.0629 -30.9516 68.7014 -0.27371 -14.7317 -2.11773 3.05656e-009 2.44434e-011 3.08101e-009 5.22968e-009 5.22048e-011 5.36145e-009 3.05656e-009 2.44434e-011 3.08099e-009 7.73091 5.47488 0.417314 3.05656e-009 2.44456e-011 3.081e-009 2.90554 0.965183 0.102902 3.05657e-009 2.44462e-011 3.081e-009 10.2786 0.731801 0.0259123 3.05656e-009 2.44469e-011 3.08101e-009 2.22167 -0.733487 -0.20892 -2.55149e-013 6.90631e-013 9.80641e-014 -67.8639 49.5353 -21.2084 19.7394 -53.5975 -114.845 0.410724 -17.9507 2.60914 5.57358e-011 9.80518e-010 1.47159e-009 4.08733e-011 1.97907e-009 2.56111e-009 5.57296e-011 9.80518e-010 1.4716e-009 -7.73091 5.47488 -0.417314 5.57306e-011 9.80523e-010 1.4716e-009 -2.90554 0.965183 -0.102902 5.57253e-011 9.8052e-010 1.4716e-009 -10.2786 0.731801 -0.0259123 5.57416e-011 9.80515e-010 1.47159e-009 -2.22167 -0.733487 0.20892 -2.03217e-016 0 -3.88251e-019 -40.4471 -70.7056 -42.3813 -171.168 81.7777 171.154 -1.53803 -2.13435 -3.78699 2.03217e-016 0 3.88251e-019 -9.84335 -27.445 -4.97737 0.606768 48.96 -0.731114 -3.63425 -24.5604 -8.52644 
6.36616 67.1519 32.3683 3.81016 -26.8438 170.825 -4.01339 11.7685 -5.96211 4.48115 -8.89815 -1.45532 -3.6571 -8.49659 -2.72958 5.2759 -23.1439 -4.06351 -0 0 0 -0 0 0 -3.03673e-013 8.46022e-013 2.29099e-014 101.148 27.3219 -49.2867 -28.1671 -31.7234 70.0086 -0.254261 -14.2106 -2.03958 3.74416e-009 -4.2185e-010 3.64396e-009 6.40973e-009 -7.19518e-010 6.34107e-009 3.74417e-009 -4.21851e-010 3.64395e-009 7.73091 5.47488 0.417314 3.74416e-009 -4.21849e-010 3.64396e-009 2.90554 0.965183 0.102902 3.74417e-009 -4.21849e-010 3.64396e-009 10.2786 0.731801 0.0259123 3.74416e-009 -4.21849e-010 3.64396e-009 2.22167 -0.733487 -0.20892 -3.03634e-013 8.46033e-013 2.28105e-014 -66.5919 49.3553 -21.9501 18.4918 -54.4255 -117.761 0.439103 -18.5014 2.6955 5.00619e-011 3.94327e-010 1.66445e-009 2.19403e-011 9.58438e-010 2.89657e-009 5.00564e-011 3.94328e-010 1.66447e-009 -7.73091 5.47488 -0.417314 5.00561e-011 3.94334e-010 1.66446e-009 -2.90554 0.965183 -0.102902 5.00523e-011 3.9433e-010 1.66446e-009 -10.2786 0.731801 -0.0259123 5.00655e-011 3.94328e-010 1.66446e-009 -2.22167 -0.733487 0.20892 -2.03217e-016 0 -3.88251e-019 -43.0845 -72.8338 -44.5191 -166.211 84.9314 166.183 -1.56382 -2.39078 -4.22537 2.03217e-016 0 3.88251e-019 -9.28188 -23.7278 -5.20867 0.536489 46.5458 -0.683984 -3.37739 -20.8702 -9.25635 
6.26967 67.5849 28.6532 4.06546 -26.666 171.493 -3.98432 11.3702 -6.28478 4.56405 -8.85475 -1.5157 -3.3904 -8.81479 -2.51273 5.08344 -22.2886 -3.36947 -0 0 0 -0 0 0 -2.83326e-013 8.26392e-013 -1.06536e-015 101.537 26.7067 -51.1631 -28.2417 -32.3735 71.1071 -0.2349 -13.6758 -1.95972 3.57209e-009 -5.40345e-010 3.35894e-009 6.11691e-009 -9.26024e-010 5.84659e-009 3.5721e-009 -5.40348e-010 3.35892e-009 7.73091 5.47488 0.417314 3.57209e-009 -5.40347e-010 3.35894e-009 2.90554 0.965183 0.102902 3.57211e-009 -5.40347e-010 3.35894e-009 10.2786 0.731801 0.0259123 3.57209e-009 -5.40345e-010 3.35894e-009 2.22167 -0.733487 -0.20892 -2.83315e-013 8.26403e-013 -1.17912e-015 -65.5439 49.2305 -22.3051 17.3936 -55.0707 -120.233 0.452763 -18.7468 2.73438 -4.19126e-011 5.58384e-010 1.82664e-009 -1.37685e-010 1.22126e-009 3.17438e-009 -4.19165e-011 5.58385e-010 1.82665e-009 -7.73091 5.47488 -0.417314 -4.1917e-011 5.58391e-010 1.82665e-009 -2.90554 0.965183 -0.102902 -4.1921e-011 5.58388e-010 1.82664e-009 -10.2786 0.731801 -0.0259123 -4.19097e-011 5.58387e-010 1.82664e-009 -2.22167 -0.733487 0.20892 -2.03217e-016 0 -3.88251e-019 -44.5106 -74.5049 -45.364 -136.208 88.3501 136.184 -1.59034 -2.72773 -4.59175 2.03217e-016 0 3.88251e-019 -8.73857 -19.8416 -5.43645 0.464993 43.9219 -0.691482 -2.63136 -15.4668 -9.82244 
6.16929 68.0306 24.8441 4.37421 -26.4098 172.316 -4.01369 11.0106 -6.44395 4.60122 -8.84313 -1.53228 -3.1768 -9.07982 -2.3904 4.95705 -21.424 -2.66562 -0 0 0 -0 0 0 -2.17367e-013 6.94948e-013 -1.18028e-015 101.79 25.9901 -52.7663 -28.3038 -32.9615 72.0428 -0.216036 -13.136 -1.87944 2.8451e-009 -4.84826e-010 2.48172e-009 4.87421e-009 -8.33278e-010 4.32302e-009 2.84511e-009 -4.84831e-010 2.4817e-009 7.73091 5.47488 0.417314 2.84511e-009 -4.8483e-010 2.48172e-009 2.90554 0.965183 0.102902 2.84512e-009 -4.84829e-010 2.48171e-009 10.2786 0.731801 0.0259123 2.8451e-009 -4.84825e-010 2.48171e-009 2.22167 -0.733487 -0.20892 -2.1743e-013 6.94954e-013 -1.32627e-015 -64.6564 49.1488 -22.3083 16.4391 -55.6287 -122.302 0.455398 -18.7854 2.74065 -1.92086e-010 1.41355e-009 2.03308e-009 -3.9304e-010 2.65882e-009 3.52555e-009 -1.92088e-010 1.41355e-009 2.03308e-009 -7.73091 5.47488 -0.417314 -1.92088e-010 1.41355e-009 2.03309e-009 -2.90554 0.965183 -0.102902 -1.92093e-010 1.41355e-009 2.03308e-009 -10.2786 0.731801 -0.0259123 -1.92083e-010 1.41355e-009 2.03308e-009 -2.22167 -0.733487 0.20892 -2.03217e-016 0 -3.88251e-019 -44.2187 -75.8021 -44.4245 -18.8228 86.7132 18.816 -1.6197 -3.10951 -4.91571 2.03217e-016 0 3.88251e-019 -8.18923 -15.8064 -5.67873 0.384032 41.1014 -0.731892 -1.47139 -8.69411 -10.3979 
6.06355 68.4812 20.9437 4.73081 -26.1089 173.207 -4.10187 10.6867 -6.51017 4.61021 -8.85724 -1.52494 -3.00466 -9.3183 -2.29922 4.84358 -20.5628 -2.0224 -0 0 0 -0 0 0 -1.36903e-013 5.27722e-013 1.33962e-014 101.931 25.2439 -54.0675 -28.3516 -33.4861 72.8595 -0.20025 -12.658 -1.8087 1.93e-009 -3.05424e-010 1.43868e-009 3.30885e-009 -5.2656e-010 2.51093e-009 1.93002e-009 -3.0543e-010 1.43868e-009 7.73091 5.47488 0.417314 1.93001e-009 -3.05429e-010 1.43869e-009 2.90554 0.965183 0.102902 1.93002e-009 -3.05429e-010 1.43868e-009 10.2786 0.731801 0.0259123 1.93e-009 -3.05422e-010 1.43868e-009 2.22167 -0.733487 -0.20892 -1.37056e-013 5.27724e-013 1.32165e-014 -64.0097 49.0627 -21.9959 15.6749 -56.0626 -123.909 0.446362 -18.6143 2.71369 -3.08676e-010 2.30576e-009 2.1742e-009 -5.87699e-010 4.15453e-009 3.76353e-009 -3.08675e-010 2.30575e-009 2.1742e-009 -7.73091 5.47488 -0.417314 -3.08675e-010 2.30576e-009 2.1742e-009 -2.90554 0.965183 -0.102902 -3.08681e-010 2.30576e-009 2.17419e-009 -10.2786 0.731801 -0.0259123 -3.08673e-010 2.30576e-009 2.17419e-009 -2.22167 -0.733487 0.20892 -2.03217e-016 0 -3.88251e-019 -42.6113 -76.771 -42.1762 -7.18765 82.225 7.2027 -1.64365 -3.50412 -5.14562 2.03217e-016 0 3.88251e-019 -7.77271 -11.8596 -6.04968 0.301832 38.3843 -0.780159 -0.0397574 -1.46052 -10.9834 
5.95199 68.9308 16.9613 5.13371 -25.8 174.082 -4.25131 10.3954 -6.55361 4.60863 -8.89103 -1.51358 -2.86088 -9.55683 -2.17561 4.695 -19.7187 -1.50841 -0 0 0 -0 0 0 -7.30448e-014 4.00749e-013 3.34952e-014 101.99 24.5337 -55.0399 -28.3812 -33.9402 73.6019 -0.189486 -12.3083 -1.75721 1.19361e-009 -5.22724e-011 6.56228e-010 2.04806e-009 -9.11483e-011 1.15092e-009 1.19363e-009 -5.228e-011 6.56225e-010 7.73091 5.47488 0.417314 1.19362e-009 -5.22789e-011 6.56231e-010 2.90554 0.965183 0.102902 1.19363e-009 -5.22791e-011 6.56227e-010 10.2786 0.731801 0.0259123 1.1936e-009 -5.227e-011 6.56222e-010 2.22167 -0.733487 -0.20892 -7.32655e-014 4.00749e-013 3.32964e-014 -63.683 48.9219 -21.4045 15.151 -56.329 -124.994 0.425782 -18.2307 2.65323 -2.99898e-010 2.58096e-009 2.14041e-009 -5.65231e-010 4.59181e-009 3.70178e-009 -2.99896e-010 2.58096e-009 2.14041e-009 -7.73091 5.47488 -0.417314 -2.99895e-010 2.58096e-009 2.14041e-009 -2.90554 0.965183 -0.102902 -2.99901e-010 2.58096e-009 2.1404e-009 -10.2786 0.731801 -0.0259123 -2.99894e-010 2.58097e-009 2.1404e-009 -2.22167 -0.733487 0.20892 -2.03217e-016 0 -3.88251e-019 -40.4477 -77.458 -39.4572 -4.1195 77.6204 4.15448 -1.65182 -3.87977 -5.22963 2.03217e-016 0 3.88251e-019 -7.60399 -8.24054 -6.6533 0.233574 36.0707 -0.815171 1.45976 5.34066 -11.5161 
